<svg width="119" height="23" viewBox="0 0 119 23" fill="none" xmlns="http://www.w3.org/2000/svg">
<path d="M106.732 2.71851H109.421L105.537 6.30373H102.549L106.732 2.71851Z" fill="black"/>
<path d="M116.591 2.71851H118.981L115.695 6.30373H113.305L116.591 2.71851Z" fill="black"/>
<path d="M117.488 4.3048L118.981 2.70221V18.2545H117.488V4.3048Z" fill="black"/>
<path d="M118.981 15.8643V18.2545L115.994 21.8397H113.902L118.981 15.8643Z" fill="black"/>
<path d="M9.34776 22.0644H6.7664V3.85144H0.370361V1.58558H15.7151V3.85144H9.34776V22.0644Z" fill="black"/>
<path d="M19.7496 0.925903C20.132 0.925903 20.4667 1.05975 20.7535 1.32745C21.0594 1.57602 21.2124 1.97757 21.2124 2.53208C21.2124 3.06748 21.0594 3.46902 20.7535 3.73672C20.4667 4.00442 20.132 4.13826 19.7496 4.13826C19.3289 4.13826 18.9752 4.00442 18.6884 3.73672C18.4016 3.46902 18.2582 3.06748 18.2582 2.53208C18.2582 1.97757 18.4016 1.57602 18.6884 1.32745C18.9752 1.05975 19.3289 0.925903 19.7496 0.925903ZM20.9829 6.69094V22.0644H18.4589V6.69094H20.9829Z" fill="black"/>
<path d="M42.7183 6.40412C44.4584 6.40412 45.7586 6.85347 46.6191 7.75217C47.4795 8.63174 47.9097 10.0658 47.9097 12.0544V22.0644H45.4144V12.1692C45.4144 9.74077 44.3723 8.52657 42.2881 8.52657C40.7967 8.52657 39.7259 8.9568 39.0758 9.81726C38.4448 10.6777 38.1293 11.9301 38.1293 13.5746V22.0644H35.6339V12.1692C35.6339 9.74077 34.5823 8.52657 32.4789 8.52657C30.9301 8.52657 29.8593 9.00461 29.2666 9.96066C28.6738 10.9167 28.3774 12.2935 28.3774 14.0908V22.0644H25.8535V6.69094H27.8899L28.2627 8.78471H28.4061C28.8842 7.98162 29.5247 7.38887 30.3278 7.00644C31.15 6.6049 32.02 6.40412 32.9379 6.40412C35.3471 6.40412 36.9151 7.26458 37.6417 8.98548H37.7851C38.3013 8.10591 38.9993 7.45579 39.8788 7.03512C40.7775 6.61446 41.724 6.40412 42.7183 6.40412Z" fill="black"/>
<path d="M58.5957 6.40412C59.9151 6.40412 61.0432 6.69094 61.9802 7.26458C62.9362 7.83821 63.6628 8.65086 64.16 9.70253C64.6763 10.7351 64.9344 11.9493 64.9344 13.3451V14.8652H54.4082C54.4464 16.6053 54.8862 17.9342 55.7275 18.852C56.588 19.7507 57.7831 20.2001 59.3128 20.2001C60.2879 20.2001 61.1484 20.114 61.8941 19.9419C62.659 19.7507 63.4429 19.483 64.246 19.1388V21.3473C63.4621 21.6915 62.6877 21.9401 61.9228 22.0931C61.158 22.2651 60.2497 22.3512 59.198 22.3512C57.7448 22.3512 56.4541 22.0548 55.326 21.4621C54.217 20.8693 53.347 19.9897 52.716 18.8233C52.1041 17.6378 51.7981 16.1942 51.7981 14.4924C51.7981 12.8097 52.0754 11.3661 52.6299 10.1614C53.2035 8.9568 53.9971 8.02942 55.0105 7.3793C56.043 6.72918 57.2381 6.40412 58.5957 6.40412ZM58.567 8.46921C57.3624 8.46921 56.4063 8.8612 55.6989 9.64516C55.0105 10.41 54.5994 11.4808 54.4655 12.8575H62.2957C62.2765 11.5573 61.9706 10.5056 61.3779 9.70253C60.7851 8.88032 59.8482 8.46921 58.567 8.46921Z" fill="black"/>
<path d="M69.1923 1.58558H75.0434C77.6056 1.58558 79.5369 1.96801 80.8371 2.73286C82.1565 3.47858 82.8161 4.78838 82.8161 6.66226C82.8161 7.86689 82.4815 8.87076 81.8123 9.67385C81.143 10.4578 80.1774 10.9645 78.9154 11.194V11.3374C79.7759 11.4712 80.5503 11.7198 81.2386 12.0831C81.9461 12.4464 82.5006 12.9627 82.9022 13.6319C83.3037 14.3012 83.5045 15.1712 83.5045 16.242C83.5045 18.0967 82.8639 19.5308 81.5828 20.5442C80.3208 21.5577 78.5904 22.0644 76.3914 22.0644H69.1923V1.58558ZM71.7737 10.3048H75.5596C77.3188 10.3048 78.5234 10.0276 79.1736 9.47307C79.8237 8.89944 80.1487 8.05811 80.1487 6.94908C80.1487 5.82093 79.7472 5.01784 78.9441 4.53981C78.1601 4.04266 76.8981 3.79408 75.1581 3.79408H71.7737V10.3048ZM71.7737 12.456V19.8846H75.9038C77.7203 19.8846 78.9823 19.5308 79.6898 18.8233C80.3973 18.1159 80.7511 17.1885 80.7511 16.0412C80.7511 14.9704 80.3782 14.11 79.6325 13.4598C78.9059 12.7906 77.5961 12.456 75.7031 12.456H71.7737Z" fill="black"/>
<path d="M100.868 14.349C100.868 16.8921 100.218 18.8616 98.9178 20.2574C97.6367 21.6533 95.8967 22.3512 93.6977 22.3512C92.3401 22.3512 91.1259 22.0453 90.0552 21.4334C89.0035 20.8024 88.1717 19.8941 87.5598 18.7086C86.948 17.504 86.642 16.0508 86.642 14.349C86.642 11.8059 87.2826 9.84594 88.5637 8.46921C89.8448 7.09249 91.5849 6.40412 93.7838 6.40412C95.1796 6.40412 96.4034 6.71962 97.4551 7.35062C98.5258 7.9625 99.3576 8.8612 99.9504 10.0467C100.562 11.2131 100.868 12.6472 100.868 14.349ZM89.2521 14.349C89.2521 16.1655 89.6058 17.6091 90.3133 18.6799C91.0399 19.7316 92.1872 20.2574 93.7551 20.2574C95.3039 20.2574 96.4416 19.7316 97.1682 18.6799C97.8949 17.6091 98.2581 16.1655 98.2581 14.349C98.2581 12.5325 97.8949 11.1079 97.1682 10.0754C96.4416 9.04285 95.2944 8.52657 93.7264 8.52657C92.1585 8.52657 91.0208 9.04285 90.3133 10.0754C89.6058 11.1079 89.2521 12.5325 89.2521 14.349Z" fill="black"/>
<path d="M107.927 14.0717L102.549 6.30374H105.537L109.421 12.4225L113.305 6.30374H115.695L110.91 14.0717C112.87 16.9003 114.027 18.5702 115.879 21.2422C116.013 21.4358 115.852 21.6347 115.994 21.8397H113.305L109.421 15.8643L105.537 21.8397H102.549L107.927 14.0717Z" fill="black"/>
<path d="M109.122 2.71851H116.591L115.396 4.21235H107.628L109.122 2.71851Z" fill="black"/>
</svg>
